<svg id="Layer_1" data-name="Layer 1" xmlns="http://www.w3.org/2000/svg" viewBox="0 0 105.38 133.56"><defs><style>.cls-1{fill:#fff;}</style></defs><path d="M304.2,391.82a.32.32,0,0,0-.32.31v21.24c-1.28,10.48-11.94,10.06-25.53,10.06H265.51c-13.36,0-24.2,0-24.2-24.2v-66.3a24.21,24.21,0,0,1,24.2-24.2h57a24.21,24.21,0,0,1,24.2,24.2v33.15C346.7,391.63,327,391.82,304.2,391.82Z" transform="translate(-241.31 -308.73)"/><path class="cls-1" d="M319.23,344.31c2.54,8.14-6.49,18.21-20.18,22.5s-29.05,1.15-31.6-7,8.69-18.21,22.38-22.5S316.68,336.17,319.23,344.31Z" transform="translate(-241.31 -308.73)"/><path class="cls-1" d="M267.75,358.2v81.09a3,3,0,0,0,2,2.88c.93.34,2.47,0,2.47-1.25V359.83a3,3,0,0,0-2-2.88c-.94-.34-2.48,0-2.48,1.25Z" transform="translate(-241.31 -308.73)"/></svg>