<svg id="Layer_1" data-name="Layer 1" xmlns="http://www.w3.org/2000/svg" viewBox="0 0 12.46 15.79"><defs><style>.cls-1{fill:#fff;}</style></defs><path d="M250.75,405.82a0,0,0,0,0,0,0v2.51c-.15,1.24-1.41,1.19-3,1.19h-1.52c-1.57,0-2.86,0-2.86-2.86v-7.84a2.87,2.87,0,0,1,2.86-2.86h6.74a2.86,2.86,0,0,1,2.86,2.86v3.92C255.77,405.8,253.44,405.82,250.75,405.82Z" transform="translate(-243.31 -396)"/><path class="cls-1" d="M252.52,400.21c.3,1-.76,2.15-2.38,2.65s-3.43.14-3.74-.82,1-2.15,2.65-2.66S252.22,399.24,252.52,400.21Z" transform="translate(-243.31 -396)"/><path class="cls-1" d="M246.44,401.85v9.58a.36.36,0,0,0,.23.34c.11,0,.29,0,.29-.15V402a.35.35,0,0,0-.23-.34C246.62,401.66,246.44,401.7,246.44,401.85Z" transform="translate(-243.31 -396)"/></svg>